<svg width="11" height="12" viewBox="0 0 11 12" fill="none" xmlns="http://www.w3.org/2000/svg">
<g id="Layer_1" clip-path="url(#clip0_659_22953)">
<path id="Vector" d="M10.9371 4.01465C10.9371 3.28979 10.5504 2.6199 9.92255 2.25736L6.48354 0.271902C5.85569 -0.0906341 5.08222 -0.0906341 4.45436 0.271902L1.01557 2.25736C0.38771 2.61969 0.000976562 3.28957 0.000976562 4.01465V7.98557C0.000976562 8.71043 0.38771 9.38031 1.01557 9.74285L4.45436 11.7283C5.08222 12.0908 5.85569 12.0908 6.48354 11.7283L9.92234 9.74285C10.5502 9.38031 10.9369 8.71043 10.9369 7.98557V4.01465H10.9371ZM9.48997 7.8735C9.48997 8.1507 9.34202 8.4069 9.10196 8.5455L5.85696 10.4189C5.6169 10.5575 5.32101 10.5575 5.08095 10.4189L1.83595 8.5455C1.59588 8.4069 1.44794 8.1507 1.44794 7.8735V4.12651C1.44794 3.8493 1.59588 3.5931 1.83595 3.4545L5.08095 1.58111C5.32101 1.4425 5.6169 1.4425 5.85696 1.58111L9.10196 3.4545C9.34202 3.5931 9.48997 3.8493 9.48997 4.12651V7.8735Z" fill="#5F38F1" style="fill:#5F38F1;fill:color(display-p3 0.3730 0.2196 0.9465);fill-opacity:1;"/>
<path id="Vector_2" d="M7.10735 4.55573L5.90066 3.8591C5.63364 3.70501 5.30464 3.70501 5.03762 3.8591L3.83093 4.55573C3.56391 4.70983 3.39941 4.9949 3.39941 5.3031V6.69636C3.39941 7.00477 3.56391 7.28962 3.83093 7.44372L5.03762 8.14035C5.30464 8.29445 5.63364 8.29445 5.90066 8.14035L7.10735 7.44372C7.37437 7.28962 7.53887 7.00455 7.53887 6.69636V5.3031C7.53887 4.99468 7.37437 4.70983 7.10735 4.55573Z" fill="#5F38F1" style="fill:#5F38F1;fill:color(display-p3 0.3730 0.2196 0.9465);fill-opacity:1;"/>
</g>
<defs>
<clipPath id="clip0_659_22953">
<rect width="10.9362" height="12" fill="white" style="fill:white;fill-opacity:1;"/>
</clipPath>
</defs>
</svg>
