<svg width="32" height="34" viewBox="0 0 32 34" fill="none" xmlns="http://www.w3.org/2000/svg">
<path fill-rule="evenodd" clip-rule="evenodd" d="M27.542 5.4974L19.4833 0.907177C18.4793 0.336764 17.3503 0.0251779 16.1972 0.000295788H16.1314H16.0152C14.79 -0.0110063 13.5835 0.301764 12.5167 0.907177L4.45804 5.4974C3.41275 6.08713 2.5419 6.94501 1.93438 7.9835C1.32686 9.02198 1.00443 10.2039 1 11.4085V20.5889C1.00443 21.7936 1.32686 22.9755 1.93438 24.014C2.5419 25.0525 3.41275 25.9103 4.45804 26.5001L12.5167 31.0928C13.5212 31.6622 14.6499 31.9737 15.8028 31.9997H15.9848C17.21 32.011 18.4165 31.6982 19.4833 31.0928L27.542 26.5026C28.5873 25.9129 29.4581 25.055 30.0656 24.0165C30.6731 22.978 30.9956 21.7961 31 20.5915V11.4085C30.9953 10.2039 30.6728 9.02212 30.0653 7.98368C29.4578 6.94524 28.5871 6.08733 27.542 5.4974Z" fill="url(#paint0_linear_1628_23511)"/>
<g filter="url(#filter0_d_1628_23511)">
<path d="M16.1386 6L16.0044 6.45578V19.6802L16.1386 19.8141L22.2771 16.1855L16.1386 6Z" fill="#C4D0F6"/>
<path d="M16.1387 6L10 16.1855L16.1387 19.8141V13.3953V6Z" fill="white"/>
<path d="M16.1386 20.9763L16.063 21.0685V25.7792L16.1386 26L22.2809 17.3496L16.1386 20.9763Z" fill="#BAC5F3"/>
<path d="M16.1387 26V20.9763L10 17.3496L16.1387 26Z" fill="white"/>
<path d="M16.1387 19.814L22.2772 16.1855L16.1387 13.3953V19.814Z" fill="#8296EF"/>
<path d="M10 16.1855L16.1387 19.814V13.3953L10 16.1855Z" fill="#C1CDF7"/>
</g>
<defs>
<filter id="filter0_d_1628_23511" x="6" y="6" width="20.2808" height="28" filterUnits="userSpaceOnUse" color-interpolation-filters="sRGB">
<feFlood flood-opacity="0" result="BackgroundImageFix"/>
<feColorMatrix in="SourceAlpha" type="matrix" values="0 0 0 0 0 0 0 0 0 0 0 0 0 0 0 0 0 0 127 0" result="hardAlpha"/>
<feOffset dy="4"/>
<feGaussianBlur stdDeviation="2"/>
<feComposite in2="hardAlpha" operator="out"/>
<feColorMatrix type="matrix" values="0 0 0 0 0.25098 0 0 0 0 0.356863 0 0 0 0 0.870588 0 0 0 1 0"/>
<feBlend mode="normal" in2="BackgroundImageFix" result="effect1_dropShadow_1628_23511"/>
<feBlend mode="normal" in="SourceGraphic" in2="effect1_dropShadow_1628_23511" result="shape"/>
</filter>
<linearGradient id="paint0_linear_1628_23511" x1="9" y1="3" x2="22.5" y2="29" gradientUnits="userSpaceOnUse">
<stop stop-color="#7992EE"/>
<stop offset="1" stop-color="#405BDE"/>
</linearGradient>
</defs>
</svg>
